<svg width="147" height="46" viewBox="0 0 147 46" fill="none" xmlns="http://www.w3.org/2000/svg">
<g id="Logo_Jible">
<path id="Jible" fill-rule="evenodd" clip-rule="evenodd" d="M26.1412 0C27.3059 0 28.201 0.26169 28.8265 0.785079C29.452 1.30847 29.7647 2.04992 29.7647 3.00947V4.90674C29.7647 5.86629 29.452 6.59684 28.8265 7.09842C28.201 7.6 27.3059 7.85079 26.1412 7.85079C25.0196 7.85079 24.1461 7.6 23.5206 7.09842C22.8951 6.59684 22.5824 5.86629 22.5824 4.90674V3.00947C22.5824 2.04992 22.8951 1.30847 23.5206 0.785079C24.1461 0.26169 25.0196 0 26.1412 0ZM11.6794 43.1793C13.2539 41.5656 14.0412 39.0795 14.0412 35.7211V1.9627H8.54118V36.1791C8.54118 37.8364 8.19608 39.025 7.50588 39.7446C6.81568 40.4643 5.7804 40.8241 4.4 40.8241C2.6745 40.8241 1.20785 40.7151 0 40.497V45.142C0.301962 45.2293 0.895094 45.3274 1.77941 45.4364C2.66373 45.5455 3.45098 45.6 4.14118 45.6C7.59217 45.6 10.1049 44.7931 11.6794 43.1793ZM28.9235 44.8149V12.8884H23.4235V44.8149H28.9235ZM47.0412 13.4118C45.5745 14.2841 44.2804 15.5271 43.1588 17.1409V0.130846H37.6588V33.693C37.6588 37.7056 38.5431 40.6932 40.3118 42.656C42.0804 44.6187 44.8627 45.6 48.6588 45.6C52.5412 45.6 55.4098 44.5859 57.2647 42.5578C59.1196 40.5297 60.0471 37.5312 60.0471 33.5621V23.2253C60.0471 19.6051 59.3137 16.8465 57.8471 14.9492C56.3804 13.0519 54.3098 12.1033 51.6353 12.1033C50.0392 12.1033 48.5079 12.5395 47.0412 13.4118ZM50.3412 17.0755C49.0902 17.0755 47.8176 17.5552 46.5235 18.5148C45.2294 19.4743 44.1078 20.7828 43.1588 22.4402V34.3472C43.1588 36.4844 43.6441 38.1199 44.6147 39.2539C45.5853 40.388 46.9333 40.9549 48.6588 40.9549C52.5843 40.9549 54.5471 38.7088 54.5471 34.2164V24.0103C54.5471 19.3871 53.1451 17.0755 50.3412 17.0755ZM73.9588 44.8149V0.130846H68.4588V44.8149H73.9588ZM93.3706 12.1033C96.9941 12.1033 99.7549 13.1064 101.653 15.1128C103.551 17.1191 104.5 20.0195 104.5 23.8141V30.5527H87.8706V34.4126C87.8706 36.637 88.399 38.2399 89.4559 39.2212C90.5127 40.2026 92.1843 40.6933 94.4706 40.6933C96.7137 40.6933 99.5176 40.3443 102.882 39.6465L103.012 44.4878C99 45.2293 96.1314 45.6 94.4059 45.6C90.1353 45.6 87.0618 44.6623 85.1853 42.7868C83.3088 40.9113 82.3706 38.0109 82.3706 34.0855V23.8141C82.3706 20.0195 83.2872 17.1191 85.1206 15.1128C86.9539 13.1064 89.7039 12.1033 93.3706 12.1033ZM89.3588 18.3512C90.351 17.2826 91.6882 16.7484 93.3706 16.7484C95.0961 16.7484 96.4657 17.2935 97.4794 18.3839C98.4931 19.4743 99 21.0663 99 23.1598V26.1039H87.8706V22.9636C87.8706 20.9572 88.3667 19.4198 89.3588 18.3512Z" fill="#1A1A1A"/>
<g id="Symbole">
<rect id="Rectangle" x="115.9" width="30.4" height="45.6" fill="#16B666"/>
<path id="Combined Shape" fill-rule="evenodd" clip-rule="evenodd" d="M118.433 5.49414C118.433 13.0797 124.104 19.2291 131.1 19.2291C138.096 19.2291 143.767 13.0797 143.767 5.49414H138.415C138.415 9.87456 135.14 13.4256 131.1 13.4256C127.06 13.4256 123.785 9.87456 123.785 5.49414H118.433Z" fill="white"/>
</g>
</g>
</svg>
